# 3ds Max Wavefront OBJ Exporter v0.97b - (c)2007 guruware
# File Created: 14.11.2017 20:30:22

mtllib hedgehog.mtl

#
# object Hedgehog
#

v  0.6187 0.0867 0.8906
v  -0.6187 1.5851 -0.8906
v  0.8015 0.2001 0.8590
v  -0.4359 1.6984 -0.9223
v  0.7769 0.2259 0.8978
v  -0.4604 1.7243 -0.8835
v  0.7168 -0.0168 0.7354
v  -0.5205 1.4815 -1.0459
v  -0.4810 1.5163 -1.0441
v  0.7564 0.0180 0.7371
v  0.7775 0.2291 0.8245
v  -0.4104 1.6675 -0.8856
v  -0.5291 1.5631 -0.8909
v  0.6588 0.1247 0.8191
v  -0.4555 1.4854 -1.0074
v  0.7324 0.0470 0.7026
v  0.9652 1.7330 0.0465
v  -1.0129 -0.0072 -0.0431
v  0.8424 1.8665 0.1662
v  -1.1358 0.1264 0.0765
v  0.8671 1.8366 0.2018
v  -1.1110 0.0964 0.1122
v  0.8663 1.8529 -0.0960
v  -1.1119 0.1127 -0.1856
v  -1.1364 0.1386 -0.1468
v  0.8417 1.8788 -0.0572
v  0.8040 1.8328 0.1644
v  -1.0950 0.1623 0.0784
v  -1.0214 0.0846 -0.0381
v  0.8776 1.7551 0.0480
v  -1.0956 0.1745 -0.1450
v  0.8034 1.8450 -0.0589
v  0.5976 0.1747 -0.9713
v  -0.6292 1.4693 0.9699
v  0.4641 0.0055 -0.9429
v  -0.7627 1.3001 0.9983
v  0.4393 0.0355 -0.9785
v  -0.7875 1.3301 0.9627
v  0.6966 0.0548 -0.8288
v  -0.5302 1.3494 1.1124
v  -0.5698 1.3146 1.1106
v  0.6570 0.0200 -0.8306
v  0.4403 0.0306 -0.9052
v  -0.7374 1.2734 0.9583
v  -0.6187 1.3778 0.9637
v  0.5590 0.1350 -0.8999
v  -0.5445 1.2879 1.0705
v  0.6332 0.0451 -0.7930
# 48 vertices

vn 0.7504 0.6601 0.0340
vn 0.7504 0.6601 0.0340
vn 0.7504 0.6601 0.0340
vn 0.7504 0.6601 0.0340
vn 0.4654 -0.4911 -0.7364
vn 0.4654 -0.4911 -0.7364
vn 0.4654 -0.4911 -0.7364
vn 0.4654 -0.4911 -0.7364
vn 0.4654 -0.4911 -0.7364
vn 0.4654 -0.4911 -0.7364
vn -0.4654 0.4911 0.7364
vn -0.4654 0.4911 0.7364
vn -0.4654 0.4911 0.7364
vn -0.4654 0.4911 0.7364
vn 0.4654 -0.4911 -0.7364
vn 0.4654 -0.4911 -0.7364
vn 0.4654 -0.4911 -0.7364
vn 0.4654 -0.4911 -0.7364
vn 0.4694 -0.5684 0.6757
vn 0.4694 -0.5684 0.6757
vn 0.4694 -0.5684 0.6757
vn 0.4694 -0.5684 0.6757
vn -0.7504 -0.6601 -0.0340
vn -0.7504 -0.6601 -0.0340
vn -0.7504 -0.6601 -0.0340
vn -0.4694 0.5684 -0.6757
vn -0.4694 0.5684 -0.6757
vn -0.4694 0.5684 -0.6757
vn -0.4694 0.5684 -0.6757
vn 0.7504 0.6601 0.0340
vn 0.7504 0.6601 0.0340
vn 0.7504 0.6601 0.0340
vn 0.7504 0.6601 0.0340
vn 0.8597 0.1195 -0.4967
vn 0.8597 0.1195 -0.4967
vn 0.8597 0.1195 -0.4967
vn 0.8597 0.1195 -0.4967
vn -0.4694 0.5684 -0.6757
vn -0.4694 0.5684 -0.6757
vn -0.4694 0.5684 -0.6757
vn 0.4694 -0.5684 0.6757
vn 0.4694 -0.5684 0.6757
vn 0.4694 -0.5684 0.6757
vn 0.8597 0.1195 -0.4967
vn 0.8597 0.1195 -0.4967
vn 0.8597 0.1195 -0.4967
vn 0.8597 0.1195 -0.4967
vn 0.4694 -0.5684 0.6757
vn 0.4694 -0.5684 0.6757
vn 0.4694 -0.5684 0.6757
vn -0.4694 0.5684 -0.6757
vn -0.4694 0.5684 -0.6757
vn -0.4694 0.5684 -0.6757
vn 0.4654 -0.4911 -0.7364
vn 0.4654 -0.4911 -0.7364
vn 0.4654 -0.4911 -0.7364
vn -0.4654 0.4911 0.7364
vn -0.4654 0.4911 0.7364
vn -0.4654 0.4911 0.7364
vn -0.4654 0.4911 0.7364
vn -0.4694 0.5684 -0.6757
vn -0.4694 0.5684 -0.6757
vn -0.4694 0.5684 -0.6757
vn -0.4694 0.5684 -0.6757
vn 0.4694 -0.5684 0.6757
vn 0.4694 -0.5684 0.6757
vn 0.4694 -0.5684 0.6757
vn 0.4694 -0.5684 0.6757
vn -0.4694 0.5684 -0.6757
vn -0.4694 0.5684 -0.6757
vn -0.4694 0.5684 -0.6757
vn -0.4694 0.5684 -0.6757
vn 0.7504 0.6601 0.0340
vn 0.3662 0.8217 0.4368
vn 0.7504 0.6601 0.0340
vn 0.7504 0.6601 0.0340
vn 0.4654 -0.4911 -0.7364
vn 0.4654 -0.4911 -0.7364
vn 0.4654 -0.4911 -0.7364
vn 0.4654 -0.4911 -0.7364
vn -0.7504 -0.6601 -0.0340
vn -0.7504 -0.6601 -0.0340
vn -0.7504 -0.6601 -0.0340
vn -0.7504 -0.6601 -0.0340
vn -0.4654 0.4911 0.7364
vn -0.4654 0.4911 0.7364
vn -0.4654 0.4911 0.7364
vn -0.4654 0.4911 0.7364
vn -0.6610 0.7492 0.0429
vn -0.6610 0.7492 0.0429
vn -0.6610 0.7492 0.0429
vn -0.6610 0.7492 0.0429
vn -0.7504 -0.6601 -0.0340
vn -0.7504 -0.6601 -0.0340
vn -0.7504 -0.6601 -0.0340
vn 0.7504 0.6601 0.0340
vn 0.7504 0.6601 0.0340
vn 0.7504 0.6601 0.0340
vn -0.6610 0.7492 0.0429
vn -0.6610 0.7492 0.0429
vn -0.6610 0.7492 0.0429
vn -0.6610 0.7492 0.0429
vn 0.3662 0.8217 0.4368
vn -0.4654 0.4911 0.7364
vn 0.4692 0.8088 0.3545
vn 0.7504 0.6601 0.0340
vn -0.7504 -0.6601 -0.0340
vn -0.7504 -0.6601 -0.0340
vn -0.7504 -0.6601 -0.0340
vn -0.4694 0.5684 -0.6757
vn -0.4694 0.5684 -0.6757
vn -0.4694 0.5684 -0.6757
vn -0.4694 0.5684 -0.6757
vn -0.4694 0.5684 -0.6757
vn -0.4694 0.5684 -0.6757
vn -0.7504 -0.6601 -0.0340
vn -0.6074 -0.7823 0.1379
vn -0.7504 -0.6601 -0.0340
vn -0.7504 -0.6601 -0.0340
vn 0.4694 -0.5684 0.6757
vn 0.4694 -0.5684 0.6757
vn 0.4694 -0.5684 0.6757
vn 0.4694 -0.5684 0.6757
vn 0.4694 -0.5684 0.6757
vn 0.4694 -0.5684 0.6757
vn 0.4694 -0.5684 0.6757
vn -0.4694 0.5684 -0.6757
vn -0.4694 0.5684 -0.6757
vn -0.4694 0.5684 -0.6757
vn -0.4694 0.5684 -0.6757
vn 0.4694 -0.5684 0.6757
vn 0.4694 -0.5684 0.6757
vn 0.4694 -0.5684 0.6757
vn 0.4694 -0.5684 0.6757
vn 0.4654 -0.4911 -0.7364
vn 0.4654 -0.4911 -0.7364
vn 0.4654 -0.4911 -0.7364
vn 0.4654 -0.4911 -0.7364
vn 0.7504 0.6601 0.0340
vn 0.7504 0.6601 0.0340
vn 0.7504 0.6601 0.0340
vn -0.4654 0.4911 0.7364
vn -0.4654 0.4911 0.7364
vn -0.4654 0.4911 0.7364
vn -0.4654 0.4911 0.7364
vn -0.7504 -0.6601 -0.0340
vn -0.7504 -0.6601 -0.0340
vn -0.7504 -0.6601 -0.0340
vn -0.7504 -0.6601 -0.0340
vn -0.1987 -0.8687 0.4538
vn -0.1987 -0.8687 0.4538
vn -0.1987 -0.8687 0.4538
vn -0.1987 -0.8687 0.4538
vn -0.4654 0.4911 0.7364
vn -0.4654 0.4911 0.7364
vn -0.4654 0.4911 0.7364
vn 0.4654 -0.4911 -0.7364
vn 0.4654 -0.4911 -0.7364
vn 0.4654 -0.4911 -0.7364
vn -0.6074 -0.7823 0.1379
vn -0.1987 -0.8687 0.4538
vn -0.1987 -0.8687 0.4538
vn -0.5136 -0.8274 0.2272
vn 0.4654 -0.4911 -0.7364
vn 0.4654 -0.4911 -0.7364
vn 0.4654 -0.4911 -0.7364
vn -0.4654 0.4911 0.7364
vn -0.4654 0.4911 0.7364
vn -0.4654 0.4911 0.7364
vn 0.4694 -0.5684 0.6757
vn 0.4694 -0.5684 0.6757
vn 0.4694 -0.5684 0.6757
vn -0.7504 -0.6601 -0.0340
vn -0.6074 -0.7823 0.1379
vn -0.5136 -0.8274 0.2272
vn 0.7504 0.6601 0.0340
vn 0.7504 0.6601 0.0340
vn 0.7504 0.6601 0.0340
vn -0.4654 0.4911 0.7364
vn -0.4654 0.4911 0.7364
vn -0.4654 0.4911 0.7364
vn 0.7504 0.6601 0.0340
vn 0.7504 0.6601 0.0340
vn 0.7504 0.6601 0.0340
vn 0.7504 0.6601 0.0340
vn 0.7504 0.6601 0.0340
vn 0.7504 0.6601 0.0340
vn -0.7504 -0.6601 -0.0340
vn -0.7504 -0.6601 -0.0340
vn -0.7504 -0.6601 -0.0340
vn -0.7504 -0.6601 -0.0340
vn -0.7504 -0.6601 -0.0340
vn -0.7504 -0.6601 -0.0340
vn 0.4654 -0.4911 -0.7364
vn 0.4654 -0.4911 -0.7364
vn 0.4654 -0.4911 -0.7364
# 196 vertex normals

vt 0.9037 0.1351 0.0000
vt 0.1027 0.1351 0.0000
vt 0.0855 0.1185 0.0000
vt 0.9199 0.1185 0.0000
vt 0.0855 0.3210 0.0000
vt 0.0855 0.0517 0.0000
vt 0.0855 0.2520 0.0000
vt 0.9199 0.2520 0.0000
vt 0.9199 0.0517 0.0000
vt 0.9199 0.3210 0.0000
vt 0.9037 0.1852 0.0000
vt 0.1027 0.1852 0.0000
vt 0.1027 0.2353 0.0000
vt 0.9037 0.2353 0.0000
vt 0.9866 0.0517 0.0000
vt 0.9866 0.0684 0.0000
vt 0.9199 0.1852 0.0000
vt 0.9199 0.2353 0.0000
vt 0.9037 0.1852 0.0000
vt 0.0855 0.1852 0.0000
vt 0.1027 0.1852 0.0000
vt 0.0855 0.2353 0.0000
vt 0.0187 0.0684 0.0000
vt 0.9538 0.1852 0.0000
vt 0.0187 0.0517 0.0000
vt 0.9366 0.1185 0.0000
vt 0.0688 0.1185 0.0000
vt 0.0526 0.1852 0.0000
vt 0.9037 0.7798 0.0000
vt 0.1027 0.7798 0.0000
vt 0.0855 0.7631 0.0000
vt 0.9199 0.7631 0.0000
vt 0.0855 0.9657 0.0000
vt 0.0855 0.6964 0.0000
vt 0.0855 0.8966 0.0000
vt 0.9199 0.8966 0.0000
vt 0.9199 0.6964 0.0000
vt 0.9199 0.9657 0.0000
vt 0.9037 0.8299 0.0000
vt 0.1027 0.8299 0.0000
vt 0.1027 0.8800 0.0000
vt 0.9037 0.8800 0.0000
vt 0.9866 0.6964 0.0000
vt 0.9866 0.7131 0.0000
vt 0.9199 0.8299 0.0000
vt 0.9199 0.8800 0.0000
vt 0.9037 0.8299 0.0000
vt 0.0855 0.8299 0.0000
vt 0.1027 0.8299 0.0000
vt 0.0855 0.8800 0.0000
vt 0.0187 0.7131 0.0000
vt 0.9538 0.8299 0.0000
vt 0.0187 0.6964 0.0000
vt 0.9366 0.7631 0.0000
vt 0.0688 0.7631 0.0000
vt 0.0526 0.8299 0.0000
vt 0.1016 0.5599 0.0000
vt 0.9027 0.5599 0.0000
vt 0.9199 0.5766 0.0000
vt 0.0855 0.5766 0.0000
vt 0.9199 0.3740 0.0000
vt 0.9199 0.6433 0.0000
vt 0.9199 0.4431 0.0000
vt 0.0855 0.4431 0.0000
vt 0.0855 0.6433 0.0000
vt 0.0855 0.3740 0.0000
vt 0.1016 0.5098 0.0000
vt 0.9027 0.5098 0.0000
vt 0.9027 0.4598 0.0000
vt 0.1016 0.4598 0.0000
vt 0.0187 0.6433 0.0000
vt 0.0187 0.6266 0.0000
vt 0.0855 0.5098 0.0000
vt 0.0855 0.4598 0.0000
vt 0.1016 0.5098 0.0000
vt 0.9199 0.5098 0.0000
vt 0.9027 0.5098 0.0000
vt 0.9199 0.4598 0.0000
vt 0.9866 0.6266 0.0000
vt 0.0516 0.5098 0.0000
vt 0.9866 0.6433 0.0000
vt 0.0688 0.5766 0.0000
vt 0.9366 0.5766 0.0000
vt 0.9527 0.5098 0.0000
vt 0.9366 0.1185 0.0000
vt 0.0688 0.1185 0.0000
vt 0.9366 0.7631 0.0000
vt 0.0688 0.7631 0.0000
vt 0.0688 0.5766 0.0000
vt 0.9366 0.5766 0.0000
# 90 texture coords

g Hedgehog
usemtl mat_hedgehog
s 1
f 11/1/1 12/2/2 6/3/3 5/4/4 
f 16/14/5 8/7/6 15/13/7 
f 7/8/8 8/7/9 16/14/10 
s 2
f 5/4/11 6/3/12 2/6/13 1/9/14 
f 13/12/15 12/2/16 11/1/17 14/11/18 
s 4
f 10/16/19 3/26/20 1/9/21 7/15/22 
s 8
f 1/10/23 2/5/24 7/8/25 
s 4
f 2/6/26 4/27/27 9/23/28 8/25/29 
f 13/12/30 14/11/31 16/14/32 15/13/33 
s 8
f 16/14/34 11/19/35 3/17/36 10/18/37 
s 16
f 16/24/38 14/11/39 11/1/40 
s 8
f 12/2/41 13/12/42 15/28/43 
s 16
f 12/21/44 15/13/45 9/22/46 4/20/47 
s 4
f 3/26/48 5/4/49 1/9/50 
f 2/6/51 6/3/52 4/27/53 
s 1
f 16/14/54 10/18/55 7/8/56 
f 21/32/57 27/29/58 28/30/59 22/31/60 
f 31/41/61 32/42/62 23/36/63 24/35/64 
s 2
f 21/32/65 22/31/66 18/34/67 17/37/68 
f 29/40/69 28/30/70 27/29/71 30/39/72 
s 4
f 26/44/73 19/54/74 17/37/75 23/43/76 
s 8
f 24/35/77 23/36/78 17/38/79 18/33/80 
s 4
f 18/34/81 20/55/82 25/51/83 24/53/84 
f 31/41/85 29/40/86 30/39/87 32/42/88 
s 8
f 26/46/89 32/42/90 27/47/91 19/45/92 
s 16
f 32/52/93 30/39/94 27/29/95 
s 8
f 28/30/96 29/40/97 31/56/98 
s 16
f 20/48/99 28/49/100 31/41/101 25/50/102 
s 4
f 19/54/103 27/87/104 21/32/105 17/37/106 
f 18/34/107 22/31/108 20/55/109 
s 1
f 32/42/110 26/46/111 23/36/112 
f 24/35/113 25/50/114 31/41/115 
f 43/57/116 44/58/117 38/59/118 37/60/119 
s 2
f 39/64/120 40/63/121 48/70/122 
f 40/63/123 41/78/124 47/69/125 48/70/126 
f 37/60/127 38/59/128 34/62/129 33/65/130 
f 43/57/131 46/67/132 45/68/133 44/58/134 
s 4
f 42/72/135 35/82/136 33/65/137 39/71/138 
s 1
f 33/66/139 34/61/140 39/64/141 
s 4
f 34/62/142 36/83/143 41/79/144 40/81/145 
f 45/68/146 46/67/147 48/70/148 47/69/149 
s 8
f 35/73/150 42/74/151 48/70/152 43/75/153 
s 16
f 48/80/154 46/67/155 43/57/156 
s 8
f 44/58/157 45/68/158 47/84/159 
s 1
f 44/77/160 47/69/161 41/78/162 36/76/163 
s 4
f 35/82/164 37/60/165 33/65/166 
f 34/62/167 38/59/168 36/83/169 
s 2
f 48/70/170 42/74/171 39/64/172 
s 1
f 38/59/173 44/90/174 36/83/175 
f 6/3/176 12/86/177 4/27/178 
f 22/31/179 28/88/180 20/55/181 
f 3/26/182 11/85/183 5/4/184 
f 39/64/185 34/61/186 40/63/187 
f 35/82/188 43/89/189 37/60/190 
s 8
f 7/8/191 2/5/192 8/7/193 
s 1
f 8/7/194 9/22/195 15/13/196 
# 28 polygons - 28 triangles

